<svg id="Layer_1" data-name="Layer 1" xmlns="http://www.w3.org/2000/svg" viewBox="0 0 1200 1200"><defs><style>.cls-1{fill:#fff;}</style></defs><title>Artboard 1 copy 2</title><path class="cls-1" d="M428.56,827.28c15.29-6,28.76-15,43.42-22.21a196.46,196.46,0,0,1,27.72-10.81c8.2-2.6,18.34-7.38,27-6.33,4.6.56,9.26.68,13.9,1,10.34.66,20.38-1.12,30.38-3.49,13.94-3.29,28.08-5.76,42.4-4.5,13.25,1.17,26.64,2.56,39.52,5.71A97.54,97.54,0,0,1,688.18,803c9.29,6.91,14,16.3,15.83,27.4A14.21,14.21,0,0,1,704,835a4.21,4.21,0,0,1-5.81,2.9,21.56,21.56,0,0,1-4.44-3.29c-13.56-12.83-30.19-19-48.13-22.51-5.77-1.12-11.48-2.57-17.28-3.55a88.37,88.37,0,0,0-28.71-.27c-6.72,1.08-13.39,2.52-20.06,3.9a89.63,89.63,0,0,1-36.94.1c-6.2-1.3-12.13-.92-18.37,0-17.2,2.54-32.41,10.14-47.82,17.41a105.81,105.81,0,0,1-31.86,9.72c-7.45.94-12.35-2.94-15.87-9C428.27,829.68,428.58,828.6,428.56,827.28Z"/><path class="cls-1" d="M487.1,847.3c1.56.22,2.58.06,3.18.5,11.6,8.46,25,12.21,38.71,15.55,15.46,3.76,31.47,5.68,47.38,4.64a116.07,116.07,0,0,0,33.35-7.07c10.88-4.12,20.46-10.72,31.12-15.3,4.13-1.77,5.88-1.18,9,2.31,1,1.15,1.92,2.43,2.84,3.67,11.2,15-7.67,26.73-19.38,33-14.28,7.62-30.33,11.67-46.4,13-34.46,2.88-80.06-6.36-96.41-40.31C489,854.31,488.31,851,487.1,847.3Z"/><path class="cls-1" d="M613.49,710.84c-2-.11-6.87-3.47-7.19-6.28,5.58-3.89,9.09-7.17,15.57-12.36,7.17-5.74,13.22-9.45,16.66-14.36,8.51-12.14,9.75-20.38,5.37-35a106.4,106.4,0,0,0-4.54-12.2c-5.4-12.37-14.19-47.65-16.57-61.07-2.42-13.58-6.89-46.48-7.91-60.3a322.5,322.5,0,0,1,1.49-60.89c1.63-14.16,4.17-28.24,6.88-42.25S626.44,378,626,374.55c1.31-2,33.06-15.11,33.57-11.84,1,6.41-5.58,54.23-6.84,60.53-2.26,11.26-3,22.71-3.78,34.16-.92,14.08-2.43,28.14-3,42.23-.84,21.78,3.09,62.71,7.25,84.13a5,5,0,0,1,.17.91c0,8.31,6.26,38.77,9,46.34,3,8.44,6.18,16.88,8.63,25.52,3.22,11.41-10,23.86-12.28,26.77C655.18,687.82,616.72,711,613.49,710.84Z"/><path class="cls-1" d="M509.57,642.66c3.85,1.38,6.95,1.21,7.24,4.54.47,5.36-3.49,11-3.33,16.58.33,11.53,1.81,11.69,22,5.68,4.94-1.76,8.67-.62,12,2.74a50.76,50.76,0,0,1,7.16,8.88c4.36,7.23,1.69,12.12-7.07,14.75a25,25,0,0,1-8.53.8c-11.32-.74-21.76-3.42-29.2-13.12-7.68-10-9.29-26.92-3.11-37.27A34.06,34.06,0,0,1,509.57,642.66Z"/><path class="cls-1" d="M626,374.55C624.84,361,628,348,630.85,335a4.3,4.3,0,0,1,.17-.55,5.24,5.24,0,0,1,4.59-3.27c4.68-.36,13.88-1.09,20.16-1.7,15.75-1.53,31.81-3.44,47.46-5.71,10.09-1.47,20.34-2,30.54-2.52,71.4-1.39,143.07,12.87,151.66,14.09,3.84.55,6.19,2.21,7.33,6a71.86,71.86,0,0,1,2.94,22.21,8.65,8.65,0,0,1-9.48,8.51c-140.08-15.52-177.1-14.46-227.76-.24-2.62-.33-2.86-.76-3,1.68-.18,3.36-.55,7,.42,10.1"/><path class="cls-1" d="M305.2,369.27c-7.7-11.41-10-21.08-8.14-33.54a39.17,39.17,0,0,1,4.91-1.36c20.25-3,40.48-6.06,60.75-8.79,16.6-2.24,33.22-4.46,49.9-5.86,7.63-.64,67,4.14,85.31,4.54,9,.19,18,.35,27,.69,3.08.12,6.14.82,9.21,1.14,3.76.39,6.19,2.34,7.79,5.75,3.5,7.44,5.55,15.13,4.35,23.41-.82,5.71-2.85,7.5-8.51,7.81a8.9,8.9,0,0,1-1.86,0c-10.54-1.56-21,.29-31.52.55a37.88,37.88,0,0,0-6.49.49c-21,1.12-77.37.89-78,.74-11.82-3-93.43,6.2-108,5.62A51.73,51.73,0,0,1,305.2,369.27Z"/><path class="cls-1" d="M703.47,423.05a8.88,8.88,0,0,1,1.91-1.8C742,406,786.24,404.13,816,406.38c11.94.89,17.47,1.31,29.63,4.9,6.67,2,16.58,8.08,20.39,13.54,1.48,2.13,1.38,2.2,1.21,7.88-2.23,1.41-3.51-.4-4.65-1.64-4.28-4.65-18-12-19.87-11.79-1.73,11.78-6.7,24.94-22.88,23-6.9-.81-9.09-6.21-8.73-12.36.66-11.16,6.16-14.12,6.16-14.12s-35.52-9.26-98.45,8.66C712.85,427,713.08,428.83,703.47,423.05Z"/><path class="cls-1" d="M482.38,421.93c-7.16-.48-16.09-1.82-21.22-2.26-5.75-.49-14.32-.57-14.32-.57s-2.13,13.27-8.4,18.93c-5.65,5.1-16.62,7.44-20.94-.84-4.63-8.85,3.48-18.91,3.59-18.88a190.82,190.82,0,0,0-21.25,2.46c-7.14,1.15-13.59,2.62-20.65,4.21-8.22,1.82-16.31,4.8-24.35,7.32a172.51,172.51,0,0,0-23.44,8.92c-2.6,1.28-4,2.69-7.24,2.42-1.34-.11-3.31-2.43-4.62-4.32a35,35,0,0,1,5.37-3q4.8-2.47,9.69-4.74,9.54-4.44,19.39-8.09a233,233,0,0,1,41-11.11c25.58-4.4,52.06-4.15,77.34,1.77C477.73,415.42,480,417.14,482.38,421.93Z"/></svg>