<svg id="Layer_1" data-name="Layer 1" xmlns="http://www.w3.org/2000/svg" viewBox="0 0 1200 1200"><defs><style>.cls-1{fill:#fff;}</style></defs><title>Artboard 1 copy 3</title><path class="cls-1" d="M631.39,706.48c5-2.84-15.82-14-15.82-14-9.81-.36-19.55,3.24-29.37,4.76-13.64,2.11-39.78-5.88-34.83-29.63,3.15-15.08,11.44-70.74,12.19-88.65,2.35-55.82,2.19-111.68,3.5-167.53.25-10.23.35-20.46.74-30.69.15-3.83,4.07-19.22-4.39-20.48-12.67-1.9-22.71-4.39-32.61-9.38-24-12.1-48.67-22.9-73-34.22-16.7-7.75-33.81-16.08-52.2-16.82-15.62-.64-31,4.3-45.14,10.95-6.71,3.16-13.22,6.71-19.71,10.29S326.6,327.74,320.44,332c-4.68,3.22-7.73,8.24-10.61,13-2.74,4.56-7.38,9.65-7.69,15.13a10.17,10.17,0,0,0,2.69,7.42,1.8,1.8,0,0,0,.91.61,2,2,0,0,0,1.16-.28c13.78-6.67,25-15.66,37.06-24.91,9.79-7.49,21.43-14,33.71-13,7.65.66,14.71,4.21,21.58,7.62q32.12,15.95,65.22,29.78c21.13,8.85,42.72,18.65,65.13,23.21.92.2,3.62.49,3.62.49s-3.06,39.74-3.71,55.05c-.09,40.49,3.58,126.76-.23,175.29-1.61,20.43-19.83,63.82,8.83,90,11.69,10.67,44.2,7.2,54.06,4.68C608.08,712,631.39,706.48,631.39,706.48Z"/><path class="cls-1" d="M795,308c-17.69-2.53-36.41-.09-53.78,4.8-15.59,4.39-30.57,10.6-45.56,16.67-7.75,3.14-15.5,6.26-23.37,9.08A45,45,0,0,0,652.52,353c-3.22,4.07-12.13,17.82-6.08,22.44,5.86,4.48,23.26-6.42,28.5-8.92,12.16-5.81,24.22-11.89,36.85-16.66,16.83-6.35,35-10.34,52.84-7.76C784.89,345,803,356.14,819.4,368.37c11.43,8.51,22.37,17.67,34.2,25.63,5.59,3.76,11.49,7.15,17.2,10.64,5.3,3.24,8.56,2.35,13.78-.72,6.93-4.09,10.27-10.71,13-17.76a4.14,4.14,0,0,0-1.79-5.12c-5.17-3.51-8.84-9.25-13-13.86q-7.17-7.87-14.9-15.23A296.72,296.72,0,0,0,835,324.9a117.76,117.76,0,0,0-13.84-8.71A81.69,81.69,0,0,0,795,308Z"/><path class="cls-1" d="M338.87,422.25c2.86-4,13.77-14.55,20.27-16.56-2.59,4.75-1.89,13.61,3.65,19.09,5.78,5.74,15.13,4.37,19.89-1.73,4.59-5.89,3.15-14.49-.83-21.78,4.81-.49,11.29.43,16.1,1.21,20,3.29,56.76,21.47,76.18,39.29,1.54,1.41,2.64-6.41,2.33-7.41-.83-2.63-3.23-4.61-5.26-6.31a177.46,177.46,0,0,0-17.43-12.94,160.68,160.68,0,0,0-41.62-19.2c-12.22-3.63-25.06-5.8-37.74-4.48-9.62,1-19.22,4-27.13,9.67C329.05,414.08,336.52,425.53,338.87,422.25Z"/><path class="cls-1" d="M818.22,429.89c3.93,2.93,11.8,11.07,14.23,9.16,7.22-5.68-4.51-13.19-8.5-16.41a112.48,112.48,0,0,0-21-13.42,103.45,103.45,0,0,0-49.27-10.16,104.49,104.49,0,0,0-38.49,8.56,71.33,71.33,0,0,0-17,10.43c-7.42,6.29-8.08,9.28-4.23,13.18.67.68,13.57-12.08,27-16.82-.64,3.7-2.37,17.34,8.1,22.11,5.35,2.44,16.23-1.43,18-10.28a15.55,15.55,0,0,0-6.91-16.64s3.9-1.94,17.15-2C773.28,407.51,788.25,407.56,818.22,429.89Z"/><path class="cls-1" d="M468.55,813c.51-2,2.59-3.49,5.49-4.86a317.62,317.62,0,0,0,53.12-31.72c7.18-5.3,13.93-12.69,23.67-11.39,8.59,1.15,15.92,7,24.92,6,7.91-.88,21.16-9.72,28.79-5.82,15.34,7.84,24.31,24.47,38,34.49,25,18.29,38.9,27.15,43.26,32.1a6.13,6.13,0,0,1-.48,8.6c-14.76,13.36-64,55.56-101.66,59.23-11.41,1.11-23.1.67-34-2.74-17.43-5.43-31.85-17.89-43.76-31.73C493.11,850.41,480,834,469.62,817.48A5.72,5.72,0,0,1,468.55,813Z"/></svg>