<svg xmlns="http://www.w3.org/2000/svg" viewBox="-71 570 334.9 285.6">
  <defs>
    <style>
      .cls-1 {
        fill: #ee3124;
      }
    </style>
  </defs>
  <g id="Group_16" data-name="Group 16" transform="translate(-71 570)">
    <path id="Path_47" data-name="Path 47" class="cls-1" d="M259.1,46.9,21.8,284.2l1.4,1.4L259.1,49.7l73.8,73.8,1.4-1.4Z"/>
    <path id="Path_48" data-name="Path 48" class="cls-1" d="M259.1,0,0,259.1l1.4,1.4L259.1,2.8l74.4,74.4,1.4-1.4Z"/>
    <path id="Path_49" data-name="Path 49" class="cls-1" d="M259.1,35.4,16.6,277.8l1.4,1.4,241.1-241,74.2,74.2,1.5-1.4Z"/>
    <path id="Path_50" data-name="Path 50" class="cls-1" d="M259.2,23.2,10.9,271.3l1.4,1.4L259.2,26l73.6,73.6,1.4-1.4Z"/>
    <path id="Path_51" data-name="Path 51" class="cls-1" d="M259.1,11.8,5.6,265.2l1.5,1.5,252-252.1,73.7,73.7,1.4-1.4Z"/>
    <rect id="Rectangle_21" data-name="Rectangle 21" class="cls-1" width="2" height="47.7" transform="translate(332.9 75.9)"/>
  </g>
</svg>
