<svg xmlns="http://www.w3.org/2000/svg" viewBox="518.202 55 188.798 75">
  <defs>
    <style>
      .cls-1 {
        fill: #ee3124;
      }
    </style>
  </defs>
  <g id="Symbol_2_1" data-name="Symbol 2 – 1" transform="translate(482.202 22)">
    <g id="Group_1" data-name="Group 1" transform="translate(101.513 33)">
      <path id="Path_1" data-name="Path 1" class="cls-1" d="M163.257,75H131.2V0h17.726V57.423h14.331ZM132.2,74h30.06V58.422H147.928V1H132.2Z" transform="translate(-131.2)"/>
      <path id="Path_2" data-name="Path 2" class="cls-1" d="M167.214,71.406H140.1V1h1V70.407h26.115Z" transform="translate(-135.656 -0.501)"/>
      <path id="Path_3" data-name="Path 3" class="cls-1" d="M171.269,67.112H148.2V1h1V66.113h22.071Z" transform="translate(-139.711 -0.501)"/>
      <path id="Path_4" data-name="Path 4" class="cls-1" d="M175.475,63.117H156.6V1h1V62.119h17.876Z" transform="translate(-143.917 -0.501)"/>
      <path id="Path_5" data-name="Path 5" class="cls-1" d="M180.53,72.026H165.7v-1h13.832V55.4H165.7v-1h14.83Z" transform="translate(-148.473 -27.236)"/>
      <rect id="Rectangle_1" data-name="Rectangle 1" class="cls-1" width="14.331" height="0.999" transform="translate(17.227 31.208)"/>
      <rect id="Rectangle_2" data-name="Rectangle 2" class="cls-1" width="14.331" height="0.999" transform="translate(17.227 35.453)"/>
      <rect id="Rectangle_3" data-name="Rectangle 3" class="cls-1" width="14.331" height="0.999" transform="translate(17.227 39.797)"/>
      <path id="Path_6" data-name="Path 6" class="cls-1" d="M180.53,17.676H165.7v-1h13.832V1H165.7V0h14.83Z" transform="translate(-148.473)"/>
      <rect id="Rectangle_4" data-name="Rectangle 4" class="cls-1" width="14.331" height="0.999" transform="translate(17.227 4.095)"/>
      <rect id="Rectangle_5" data-name="Rectangle 5" class="cls-1" width="14.331" height="0.999" transform="translate(17.227 8.339)"/>
      <rect id="Rectangle_6" data-name="Rectangle 6" class="cls-1" width="14.331" height="0.999" transform="translate(17.227 12.683)"/>
    </g>
    <g id="Group_2" data-name="Group 2" transform="translate(139.862 33)">
      <path id="Path_7" data-name="Path 7" class="cls-1" d="M240.007,75H208V0h17.726V57.423h14.331V75ZM209,74h30.06V58.422H224.728V1H209Z" transform="translate(-208)"/>
      <path id="Path_8" data-name="Path 8" class="cls-1" d="M243.914,71.406H216.8V1h1V70.407h26.115Z" transform="translate(-212.406 -0.501)"/>
      <path id="Path_9" data-name="Path 9" class="cls-1" d="M248.019,67.062H225V1h1V66.063h22.021Z" transform="translate(-216.511 -0.501)"/>
      <path id="Path_10" data-name="Path 10" class="cls-1" d="M252.175,63.067H233.3V1h1V62.069h17.876Z" transform="translate(-220.667 -0.501)"/>
      <path id="Path_11" data-name="Path 11" class="cls-1" d="M257.28,71.976H242.5v-1h13.782V55.3H242.5v-1h14.78Z" transform="translate(-225.273 -27.186)"/>
      <rect id="Rectangle_7" data-name="Rectangle 7" class="cls-1" width="14.331" height="0.999" transform="translate(17.227 31.208)"/>
      <rect id="Rectangle_8" data-name="Rectangle 8" class="cls-1" width="14.331" height="0.999" transform="translate(17.227 35.453)"/>
      <rect id="Rectangle_9" data-name="Rectangle 9" class="cls-1" width="14.331" height="0.999" transform="translate(17.227 39.797)"/>
      <path id="Path_12" data-name="Path 12" class="cls-1" d="M257.28,17.626H242.5v-1h13.782V1H242.5V0h14.78Z" transform="translate(-225.273)"/>
      <rect id="Rectangle_10" data-name="Rectangle 10" class="cls-1" width="14.331" height="0.999" transform="translate(17.227 4.095)"/>
      <rect id="Rectangle_11" data-name="Rectangle 11" class="cls-1" width="14.331" height="0.999" transform="translate(17.227 8.339)"/>
      <rect id="Rectangle_12" data-name="Rectangle 12" class="cls-1" width="14.331" height="0.999" transform="translate(17.227 12.633)"/>
    </g>
    <g id="Group_3" data-name="Group 3" transform="translate(178.16 33.05)">
      <path id="Path_13" data-name="Path 13" class="cls-1" d="M315.858,75.05H284.7V.1h31.158l15.429,14.83.05,45.24Zm-30.16-1h29.76l14.88-14.281-.05-44.391L315.459,1.1H302.426V57.523h6.142l5.143-5.143V32.007h1V52.78l-5.742,5.742h-7.54V1.1H285.7Z" transform="translate(-284.7 -0.1)"/>
      <path id="Path_14" data-name="Path 14" class="cls-1" d="M331.983,54.422h-1V39.342L325.891,34.2H319.2v-1h7.091l5.692,5.742Z" transform="translate(-301.973 -16.672)"/>
      <path id="Path_15" data-name="Path 15" class="cls-1" d="M293.5,71.506V1.1h1V70.507h23.519l12.334-12.184v-40.5L318.117,5.644l-11.784-.05v-1l12.184.05,12.833,12.783V58.723L318.467,71.506Z" transform="translate(-289.106 -0.601)"/>
      <path id="Path_16" data-name="Path 16" class="cls-1" d="M320.725,67.162H301.7V1.1h1V66.163h17.577l9.987-9.737.1-36.651L320.325,9.988h-9.887v-1h10.286L331.36,19.326l-.1,37.55Z" transform="translate(-293.211 -0.601)"/>
      <path id="Path_17" data-name="Path 17" class="cls-1" d="M323.282,63.167H310V1.1h1V62.169h11.834l7.54-7.54V21.523l-7.54-7.54h-8.239v-1h8.688l8.089,8.089V55.028Z" transform="translate(-297.367 -0.601)"/>
    </g>
    <g id="Group_5" data-name="Group 5" transform="translate(36 33.05)">
      <rect id="Rectangle_13" data-name="Rectangle 13" class="cls-1" width="0.999" height="73.951" transform="translate(49.085 0.499)"/>
      <rect id="Rectangle_14" data-name="Rectangle 14" class="cls-1" width="0.999" height="73.951" transform="translate(53.079 0.499)"/>
      <g id="Group_4" data-name="Group 4">
        <path id="Path_18" data-name="Path 18" class="cls-1" d="M17.577,75.05H0V.1H17.577ZM1,74.051H16.578V1.1H1Z" transform="translate(0 -0.1)"/>
        <rect id="Rectangle_15" data-name="Rectangle 15" class="cls-1" width="0.999" height="73.951" transform="translate(4.095 0.499)"/>
        <rect id="Rectangle_16" data-name="Rectangle 16" class="cls-1" width="0.999" height="73.951" transform="translate(8.389 0.499)"/>
        <rect id="Rectangle_17" data-name="Rectangle 17" class="cls-1" width="0.999" height="73.951" transform="translate(12.383 0.499)"/>
        <path id="Path_19" data-name="Path 19" class="cls-1" d="M99.027,75.05H81.5V.1H99.077V75.05Zm-16.528-1H98.078V1.1H82.5Z" transform="translate(-40.804 -0.1)"/>
        <rect id="Rectangle_18" data-name="Rectangle 18" class="cls-1" width="0.999" height="73.951" transform="translate(44.74 0.499)"/>
        <path id="Path_20" data-name="Path 20" class="cls-1" d="M45.883,13.432,33.5,1.049,34.2.3,45.883,12.034,57.618.3l.7.749Z" transform="translate(-16.772 -0.2)"/>
        <path id="Path_21" data-name="Path 21" class="cls-1" d="M45.833,60.282,33.4,47.849l.7-.749L45.833,58.884,57.568,47.15l.7.749Z" transform="translate(-16.722 -23.631)"/>
        <path id="Path_22" data-name="Path 22" class="cls-1" d="M45.883,24.983,33.5,12.6l.7-.7L45.883,23.584,57.618,11.9l.7.7Z" transform="translate(-16.772 -6.008)"/>
        <path id="Path_23" data-name="Path 23" class="cls-1" d="M45.933,37.183,33.5,24.8l.7-.7L45.933,35.784,57.568,24.15l.7.7Z" transform="translate(-16.772 -12.116)"/>
        <path id="Path_24" data-name="Path 24" class="cls-1" d="M45.883,48.532,33.5,36.149l.7-.749L45.883,47.134,57.618,35.45l.7.7Z" transform="translate(-16.772 -17.774)"/>
      </g>
    </g>
  </g>
</svg>
