<?xml version="1.0" standalone="no"?>
<!DOCTYPE svg PUBLIC "-//W3C//DTD SVG 20010904//EN"
 "http://www.w3.org/TR/2001/REC-SVG-20010904/DTD/svg10.dtd">
<svg version="1.0" xmlns="http://www.w3.org/2000/svg"
 width="1070.000000pt" height="1070.000000pt" viewBox="0 0 1070.000000 1070.000000"
 preserveAspectRatio="xMidYMid meet">
<metadata>
Created by potrace 1.11, written by Peter Selinger 2001-2013
</metadata>
<g transform="translate(0.000000,1070.000000) scale(0.100000,-0.100000)"
fill="#000000" stroke="none">
<path d="M5080 9995 c0 -7 -36 -10 -92 -10 -51 0 -115 -4 -143 -8 -27 -5 -66
-10 -85 -12 -19 -2 -39 -4 -43 -4 -5 -1 -6 -5 -3 -9 2 -4 -4 -8 -14 -8 -10 0
-16 4 -14 8 3 4 0 8 -5 8 -6 0 -11 -5 -11 -11 0 -5 -4 -8 -9 -5 -5 3 -11 -1
-15 -9 -3 -8 -13 -15 -23 -15 -15 0 -16 2 -3 10 8 5 10 10 4 10 -5 0 -15 -5
-21 -11 -7 -7 -69 -15 -142 -20 -71 -4 -139 -13 -151 -19 -12 -6 -34 -14 -48
-16 -15 -3 -30 -10 -33 -16 -4 -6 -16 -8 -28 -5 -11 3 -20 2 -19 -2 2 -18 -3
-24 -11 -13 -6 10 -13 11 -27 4 -18 -10 -86 -30 -127 -38 -10 -2 -25 -9 -33
-15 -12 -10 -13 -8 -7 7 6 16 3 15 -17 -4 -13 -12 -29 -21 -34 -21 -26 3 -37
-2 -30 -13 5 -8 2 -9 -9 -5 -10 3 -17 3 -17 -1 0 -4 -12 -9 -26 -10 -14 -1
-50 -9 -80 -18 -30 -9 -63 -13 -72 -9 -9 3 -13 3 -10 -1 13 -12 -16 -32 -34
-23 -14 8 -16 6 -11 -7 4 -12 3 -15 -5 -10 -7 4 -12 2 -12 -5 0 -7 -3 -10 -6
-7 -3 4 -17 0 -31 -7 -15 -8 -31 -11 -36 -8 -6 3 -7 1 -3 -5 8 -13 -29 -26
-46 -16 -7 4 -10 4 -6 -1 10 -11 -29 -38 -42 -30 -6 3 -10 1 -10 -4 0 -6 -3
-10 -7 -10 -5 1 -11 0 -15 -1 -5 -1 -11 -3 -15 -4 -51 -11 -121 -41 -116 -49
4 -6 0 -8 -10 -4 -10 4 -16 2 -14 -6 1 -7 -6 -11 -15 -9 -10 2 -18 -2 -18 -8
0 -6 -4 -8 -10 -5 -5 3 -10 2 -10 -3 0 -9 -19 -17 -55 -23 -5 -1 -20 -13 -31
-27 -12 -13 -26 -22 -32 -18 -6 3 -12 2 -14 -3 -1 -5 -31 -22 -65 -40 -34 -17
-65 -36 -69 -42 -5 -8 -3 -9 7 -4 8 5 11 4 6 -1 -5 -5 -12 -9 -15 -10 -4 0
-15 -4 -24 -8 -9 -4 -22 -4 -29 0 -7 4 -9 3 -6 -3 6 -10 -29 -31 -47 -29 -5 0
-13 -10 -17 -23 -6 -15 -14 -21 -25 -17 -8 3 -13 2 -10 -3 6 -9 -22 -26 -36
-23 -5 1 -8 -3 -8 -9 0 -5 -3 -8 -8 -5 -4 2 -16 -3 -27 -11 -16 -13 -17 -15
-2 -10 27 10 20 -2 -9 -13 -16 -7 -23 -14 -18 -22 5 -8 0 -7 -11 2 -10 8 -16
10 -12 3 5 -8 -1 -15 -18 -19 -14 -3 -25 -10 -25 -14 0 -5 -9 -12 -20 -15 -11
-4 -18 -10 -16 -14 3 -4 -8 -12 -24 -19 -16 -7 -51 -35 -79 -62 -27 -26 -52
-45 -55 -42 -3 3 -6 0 -6 -6 0 -7 -7 -12 -15 -12 -8 0 -15 -7 -15 -15 0 -8 -6
-14 -12 -13 -7 2 -12 -3 -10 -9 1 -7 -2 -13 -7 -13 -5 0 -17 -7 -25 -16 -9 -9
-16 -11 -16 -4 0 6 -12 -2 -26 -17 -15 -15 -30 -27 -35 -26 -4 2 -6 -4 -3 -12
4 -10 0 -15 -11 -15 -9 0 -14 -3 -12 -7 3 -5 -8 -21 -24 -36 -16 -16 -29 -26
-29 -23 0 8 -38 -22 -72 -58 -15 -15 -28 -36 -28 -46 0 -12 -7 -17 -22 -16
-13 0 -23 -5 -23 -12 0 -7 -25 -37 -55 -66 -30 -29 -64 -65 -75 -79 -10 -14
-23 -23 -27 -21 -4 3 -8 -2 -8 -11 0 -8 -7 -18 -15 -21 -8 -4 -15 -10 -15 -16
0 -5 -7 -16 -15 -24 -8 -9 -15 -12 -15 -7 0 4 -16 -17 -36 -47 -20 -30 -48
-66 -63 -79 -14 -13 -19 -20 -11 -16 8 4 3 -5 -12 -19 -16 -14 -28 -31 -28
-38 0 -7 -18 -31 -40 -52 -22 -22 -40 -45 -40 -53 0 -7 -5 -13 -11 -13 -5 0
-8 -4 -4 -9 3 -5 -3 -12 -13 -16 -11 -3 -28 -24 -38 -48 -10 -23 -24 -48 -31
-55 -7 -8 -10 -18 -7 -24 4 -7 2 -8 -4 -4 -7 4 -12 2 -12 -4 0 -6 -4 -8 -10
-5 -6 3 -7 -1 -4 -9 3 -9 1 -16 -5 -16 -6 0 -10 -3 -10 -7 3 -20 -3 -34 -28
-64 -16 -18 -22 -29 -14 -25 10 6 12 5 7 -2 -4 -7 -14 -12 -22 -12 -8 0 -13
-4 -9 -9 3 -6 -3 -14 -12 -20 -10 -5 -16 -11 -14 -13 7 -5 -10 -48 -19 -48 -5
0 -7 -6 -4 -13 2 -7 -5 -23 -17 -36 -12 -13 -33 -49 -45 -80 -13 -31 -29 -55
-35 -53 -9 2 -10 0 -1 -11 9 -10 7 -16 -8 -27 -10 -7 -17 -17 -14 -22 3 -4 2
-8 -3 -8 -10 0 -28 -42 -43 -100 -18 -73 -22 -82 -28 -76 -8 9 -40 -62 -48
-106 -4 -22 -11 -35 -17 -31 -6 3 -7 1 -3 -5 8 -14 -3 -64 -14 -57 -4 3 -11
-2 -14 -11 -4 -10 -2 -13 7 -8 13 9 -12 -26 -28 -38 -5 -4 -7 -8 -3 -8 3 0 -1
-24 -9 -52 -8 -29 -14 -63 -14 -74 0 -12 -8 -29 -19 -39 -11 -10 -17 -21 -14
-26 2 -5 -7 -32 -21 -60 -15 -29 -28 -74 -30 -103 -5 -68 -14 -107 -28 -125
-10 -12 -9 -13 3 -7 8 4 7 1 -4 -8 -10 -8 -15 -19 -11 -25 3 -6 1 -11 -5 -11
-6 0 -8 -5 -5 -10 4 -6 2 -16 -3 -23 -5 -7 -15 -57 -22 -112 -7 -55 -14 -109
-15 -120 -2 -11 -4 -26 -4 -33 -1 -7 -5 -10 -11 -7 -6 3 -7 -1 -4 -9 3 -9 11
-13 17 -9 6 3 7 1 3 -6 -4 -6 -12 -9 -17 -6 -5 4 -9 -8 -9 -25 0 -21 -4 -29
-12 -24 -6 4 -8 3 -5 -3 4 -6 3 -38 -1 -72 -5 -33 -5 -58 0 -55 10 7 10 2 -3
-71 -5 -33 -10 -87 -10 -120 0 -33 -5 -103 -10 -155 -11 -97 -17 -239 -11
-252 1 -4 5 -40 7 -80 7 -128 15 -241 21 -308 3 -36 6 -78 7 -95 1 -16 7 -33
12 -37 6 -5 5 -8 -3 -8 -9 0 -10 -5 -3 -18 7 -13 6 -23 -2 -31 -9 -9 -9 -14 2
-20 11 -7 11 -9 0 -14 -10 -4 -10 -6 -1 -6 7 -1 12 -14 12 -32 0 -21 4 -28 13
-23 7 5 7 2 -2 -10 -11 -13 -12 -16 -1 -14 14 3 14 4 30 -142 5 -52 12 -107
16 -122 3 -15 5 -31 4 -34 -1 -4 2 -10 7 -13 9 -6 30 -50 31 -65 0 -5 6 -13
14 -17 10 -7 10 -9 0 -9 -9 0 -10 -5 -4 -17 5 -10 12 -45 16 -78 4 -33 16 -75
26 -93 11 -18 14 -30 8 -25 -7 4 -5 -5 5 -20 10 -15 15 -33 11 -39 -4 -6 -3
-8 4 -4 14 8 21 -4 24 -43 1 -18 6 -35 10 -37 4 -3 8 -16 8 -30 0 -14 7 -38
15 -53 8 -16 11 -31 8 -35 -4 -3 -1 -6 6 -6 7 0 9 -4 6 -10 -3 -5 -1 -10 5
-10 6 0 8 -4 5 -10 -3 -5 -1 -10 4 -10 6 0 10 -3 9 -7 0 -5 2 -15 5 -23 3 -8
13 -40 22 -71 8 -31 25 -65 36 -77 12 -13 15 -22 7 -22 -7 0 -6 -4 4 -12 17
-15 38 -70 38 -103 0 -12 9 -30 20 -40 12 -11 28 -35 37 -54 45 -101 57 -123
69 -128 8 -3 11 -9 8 -14 -3 -5 0 -9 5 -9 6 0 11 -5 11 -12 0 -19 42 -102 60
-118 9 -8 26 -36 38 -61 12 -25 30 -54 39 -65 10 -11 24 -30 31 -42 31 -56 39
-67 64 -94 16 -16 28 -37 28 -47 0 -11 15 -32 33 -48 18 -16 31 -35 29 -42 -3
-8 0 -11 7 -7 6 4 14 -1 18 -11 8 -22 63 -99 63 -89 0 4 7 1 15 -8 8 -8 15
-19 15 -25 0 -6 5 -11 10 -11 6 0 10 -9 10 -20 0 -11 3 -19 8 -18 11 4 47 -25
50 -42 1 -8 19 -31 40 -51 20 -19 42 -47 49 -62 7 -14 26 -33 43 -42 16 -8 30
-22 30 -29 0 -8 18 -30 40 -50 22 -20 40 -40 40 -44 0 -15 46 -52 63 -52 10 0
22 -11 27 -24 9 -25 55 -66 74 -66 6 0 19 -14 28 -30 10 -17 33 -37 52 -45 19
-8 37 -23 40 -33 4 -11 22 -28 41 -38 19 -10 35 -22 35 -27 0 -4 4 -6 8 -3 10
6 43 -29 36 -38 -2 -3 -1 -4 2 -1 4 2 20 -7 36 -20 16 -14 34 -25 39 -25 6 0
26 -16 46 -35 20 -19 41 -35 48 -35 6 0 24 -16 39 -35 17 -21 44 -39 67 -46
21 -7 39 -17 39 -22 0 -6 3 -8 6 -4 4 3 23 -9 43 -28 20 -19 45 -35 56 -35 24
-1 58 -24 48 -33 -3 -4 1 -7 10 -7 9 0 17 -5 17 -11 0 -5 5 -7 10 -4 6 3 10 2
10 -3 0 -6 9 -8 20 -5 12 3 20 0 20 -6 0 -7 5 -9 10 -6 6 3 13 0 16 -9 3 -8
12 -12 19 -10 7 3 16 0 21 -7 4 -7 3 -10 -4 -5 -6 3 -14 1 -18 -5 -4 -7 -3 -9
4 -5 5 3 24 -5 40 -19 17 -14 44 -28 61 -31 17 -4 34 -11 37 -15 3 -5 10 -7
15 -4 5 4 9 1 9 -4 0 -6 3 -10 8 -9 4 2 20 -8 35 -22 24 -21 88 -46 137 -53 9
-1 26 -12 40 -25 13 -12 49 -29 80 -38 30 -9 90 -32 133 -50 43 -19 87 -34 96
-34 10 0 21 -3 24 -7 4 -3 22 -8 39 -10 18 -2 35 -8 36 -13 2 -6 10 -10 18
-10 8 0 14 -5 14 -12 0 -6 3 -9 6 -5 4 3 23 -2 43 -12 20 -11 68 -22 106 -26
39 -4 73 -12 76 -17 3 -5 12 -11 20 -12 19 -4 51 -16 71 -26 18 -10 179 -33
215 -31 12 0 25 -4 28 -9 4 -6 11 -8 16 -5 5 4 9 2 9 -4 0 -6 7 -7 17 -4 10 4
14 2 10 -4 -3 -5 0 -10 8 -10 8 0 12 4 9 9 -3 4 0 8 5 8 6 0 11 -4 11 -8 0 -9
17 -12 57 -12 12 0 25 -5 28 -10 3 -6 15 -6 29 0 13 5 27 6 30 3 3 -4 18 -8
33 -9 60 -6 220 -25 253 -31 51 -9 121 -9 126 -1 3 4 10 5 17 3 26 -10 77 -12
77 -3 0 5 6 6 13 1 17 -11 60 -11 75 0 7 6 12 6 12 0 0 -12 73 -11 82 2 5 7 8
7 8 0 0 -11 81 -12 99 -1 6 4 11 4 11 -1 0 -8 132 -7 205 2 22 3 83 10 135 16
52 6 111 14 130 16 19 3 52 6 73 7 20 0 37 4 37 7 0 4 7 10 16 13 8 3 13 2 10
-2 -3 -5 1 -9 9 -9 8 0 12 4 9 9 -3 4 3 9 13 10 19 1 35 4 43 8 6 3 42 7 145
18 44 5 91 15 105 22 14 8 29 13 33 12 4 -1 10 5 13 13 3 8 10 12 15 9 5 -3 9
-1 9 5 0 5 8 10 18 9 43 -1 153 22 191 40 22 11 38 15 34 9 -3 -7 5 -3 18 9
13 12 52 27 89 34 36 7 82 23 103 37 21 13 41 22 46 19 4 -3 13 3 21 14 7 10
19 16 25 14 17 -7 127 33 137 48 4 7 8 9 8 3 0 -5 7 -1 15 9 8 11 15 17 15 13
0 -13 116 35 141 59 15 14 33 26 40 28 62 10 138 51 139 74 0 6 7 12 15 12 8
0 17 0 20 1 20 2 129 69 128 78 -2 6 9 13 25 17 34 7 92 36 92 46 0 4 27 23
61 43 65 38 91 59 83 68 -3 3 8 8 24 12 17 3 49 24 71 46 23 21 45 39 49 39 4
0 32 23 62 50 30 28 60 50 67 50 7 0 42 30 78 66 39 40 69 63 76 58 8 -4 9 -3
5 4 -4 7 7 17 28 26 19 8 43 27 53 43 10 15 41 49 68 76 102 98 115 111 115
122 0 7 10 17 23 24 13 7 32 27 42 44 20 34 54 64 68 59 5 -1 6 2 3 7 -3 5 1
14 9 21 8 7 15 19 15 26 0 8 9 19 20 26 12 7 35 34 51 60 17 27 35 45 40 42 5
-3 8 0 7 8 -2 7 3 12 10 10 8 -1 11 1 8 6 -3 5 6 20 19 32 14 13 25 29 25 35
0 6 18 29 40 50 22 22 40 49 40 61 0 23 22 48 33 37 4 -3 7 1 7 10 0 9 6 20
13 24 6 4 22 29 35 56 13 26 28 47 34 47 6 0 8 3 5 6 -3 4 3 18 13 32 11 13
20 31 20 38 0 8 5 14 11 14 5 0 7 5 4 11 -4 5 3 19 15 29 25 22 70 101 70 124
0 8 7 22 16 30 8 9 13 16 10 16 -3 0 2 8 12 18 11 11 25 33 33 50 8 18 18 32
22 32 5 0 5 5 2 10 -4 6 4 25 18 43 14 18 33 62 43 97 10 36 26 74 36 84 14
15 15 22 6 28 -10 6 -9 8 2 8 9 0 20 16 27 37 17 57 32 117 32 126 0 5 8 15
18 24 10 8 11 11 3 7 -9 -4 -7 2 6 17 25 28 42 71 48 119 2 19 5 35 6 35 1 0
3 10 4 23 2 12 12 31 24 42 23 22 26 30 41 130 15 98 21 124 32 135 5 5 9 14
9 20 0 5 -5 3 -10 -5 -6 -9 -10 -10 -10 -3 0 7 6 16 13 20 6 4 13 17 14 28 2
29 11 63 19 77 5 7 9 19 9 28 2 18 15 97 22 125 2 11 4 39 4 63 0 31 3 41 12
35 9 -5 9 -3 -1 9 -12 15 -6 52 7 43 4 -2 8 2 8 10 0 8 -4 12 -9 9 -4 -3 -8 0
-8 6 0 6 7 13 15 16 8 4 12 10 9 15 -3 5 -9 7 -14 4 -4 -3 -6 4 -3 15 3 11 8
18 12 15 4 -2 8 8 8 23 0 15 3 43 6 62 3 19 8 80 11 135 3 55 9 134 13 175 9
105 9 113 1 131 -4 9 -5 19 -1 22 7 8 7 126 0 134 -4 3 -2 13 3 23 12 22 8 45
-13 68 -9 10 -17 24 -17 31 0 8 -7 10 -20 6 -16 -5 -19 -3 -14 12 5 16 4 16
-5 2 -9 -14 -18 -15 -47 -9 -28 7 -34 5 -30 -5 3 -9 0 -12 -9 -8 -8 3 -13 9
-10 13 3 5 0 12 -6 16 -8 4 -9 3 -5 -4 5 -8 -2 -12 -19 -12 -17 0 -24 -4 -19
-12 5 -7 3 -8 -7 -2 -19 12 -159 12 -159 -1 0 -5 -4 -3 -10 5 -5 8 -12 11 -16
7 -4 -4 -14 -1 -22 6 -10 7 -13 8 -9 1 9 -15 -43 -15 -62 0 -12 9 -13 8 -7 -3
6 -9 5 -12 -5 -9 -8 3 -13 11 -11 17 1 7 -2 10 -8 6 -6 -3 -8 -10 -6 -13 2 -4
-26 -8 -64 -8 -38 0 -67 3 -64 7 2 4 0 11 -6 14 -6 4 -9 1 -8 -7 2 -8 -6 -13
-19 -12 -13 1 -20 -3 -17 -7 3 -5 -2 -12 -10 -15 -9 -3 -22 -19 -30 -35 -8
-16 -10 -27 -5 -24 5 4 9 0 9 -9 0 -8 3 -22 7 -32 5 -12 3 -15 -6 -9 -10 6
-11 3 -2 -13 9 -16 7 -24 -7 -38 -15 -16 -15 -17 0 -12 10 4 19 1 22 -8 3 -9
1 -12 -4 -9 -6 3 -10 3 -11 -2 0 -4 -2 -18 -3 -31 -2 -13 2 -26 7 -29 6 -4 7
-1 2 7 -5 9 -4 11 4 6 7 -5 9 -12 3 -19 -12 -15 -22 -58 -13 -53 4 3 7 -11 7
-29 -1 -19 -5 -35 -10 -35 -4 0 -6 -7 -3 -15 4 -8 2 -17 -4 -20 -5 -4 -7 -11
-4 -16 4 -5 2 -9 -4 -9 -5 0 -10 -8 -10 -17 0 -10 -5 -42 -10 -71 -6 -29 -10
-81 -10 -115 -1 -34 -1 -69 -1 -77 0 -8 -5 -59 -10 -113 -9 -94 -22 -137 -39
-137 -4 0 -7 -16 -5 -35 1 -23 -1 -33 -8 -29 -6 4 -8 2 -4 -4 3 -6 2 -22 -4
-37 -5 -14 -15 -59 -21 -98 -6 -40 -14 -76 -17 -82 -4 -5 -7 -14 -8 -20 -3
-32 -18 -75 -25 -75 -5 0 -6 -7 -3 -15 4 -8 2 -15 -4 -15 -11 0 -42 -104 -42
-142 0 -36 -10 -59 -23 -51 -5 3 -7 2 -4 -3 3 -6 -8 -29 -24 -53 -18 -27 -29
-57 -29 -78 0 -23 -4 -32 -12 -27 -7 4 -8 3 -4 -4 8 -13 -23 -72 -38 -72 -5 0
-6 -3 -3 -7 4 -3 3 -11 -2 -17 -4 -6 -16 -35 -26 -64 -9 -29 -25 -57 -36 -63
-11 -5 -17 -14 -14 -18 2 -5 -1 -14 -9 -20 -7 -6 -19 -32 -26 -57 -7 -25 -19
-48 -27 -51 -7 -3 -13 -9 -13 -14 0 -6 -9 -19 -20 -31 -11 -12 -20 -32 -20
-45 0 -13 -4 -23 -9 -23 -5 0 -23 -21 -40 -47 -17 -27 -34 -52 -39 -58 -9 -11
-12 -20 -12 -36 0 -5 -5 -7 -12 -3 -7 5 -8 3 -3 -6 5 -8 2 -17 -7 -24 -8 -6
-23 -27 -34 -46 -10 -19 -36 -52 -56 -72 -21 -21 -38 -40 -38 -43 0 -3 -17
-23 -37 -44 -48 -49 -74 -81 -67 -81 3 0 -10 -15 -28 -34 -18 -19 -52 -56 -76
-83 -69 -77 -79 -87 -105 -109 -13 -11 -28 -30 -31 -42 -4 -12 -11 -20 -16
-17 -4 3 -28 -17 -53 -45 -25 -27 -50 -50 -57 -50 -6 0 -9 -3 -7 -7 2 -5 -8
-19 -21 -33 -14 -14 -21 -19 -17 -11 6 10 4 12 -4 7 -7 -5 -10 -15 -6 -23 4
-13 3 -14 -10 -3 -13 11 -19 7 -17 -11 1 -4 -12 -12 -28 -19 -16 -7 -28 -16
-25 -20 3 -4 -9 -13 -25 -20 -17 -7 -30 -17 -30 -22 0 -5 -5 -6 -12 -2 -6 4
-8 3 -5 -3 4 -6 -5 -19 -19 -29 -15 -11 -34 -26 -43 -35 -9 -9 -27 -20 -41
-24 -35 -11 -69 -37 -70 -54 0 -8 -3 -11 -7 -8 -3 4 -20 -4 -37 -16 -17 -13
-39 -26 -48 -30 -10 -3 -18 -11 -18 -17 0 -6 -4 -9 -9 -6 -5 3 -11 -1 -14 -9
-3 -7 -23 -19 -44 -24 -21 -6 -53 -24 -71 -40 -18 -17 -36 -31 -40 -32 -25 -7
-98 -43 -100 -50 -2 -5 -10 -9 -18 -9 -9 0 -12 -5 -8 -12 5 -7 2 -9 -9 -5 -9
3 -17 3 -19 -1 -3 -8 -96 -44 -115 -45 -7 0 -11 -5 -10 -11 1 -6 -4 -10 -10
-8 -7 1 -13 -5 -13 -14 0 -11 -6 -15 -20 -11 -11 3 -18 1 -14 -4 3 -5 -2 -10
-10 -10 -29 -3 -34 -4 -42 -12 -4 -4 -18 -7 -31 -7 -12 0 -23 -4 -23 -9 0 -6
-9 -8 -19 -6 -11 2 -22 -3 -25 -10 -3 -8 -14 -12 -26 -10 -11 2 -18 0 -15 -6
4 -5 3 -10 -2 -10 -4 -1 -17 -3 -28 -5 -69 -10 -164 -45 -196 -71 -9 -7 -54
-18 -100 -24 -46 -5 -94 -17 -107 -25 -12 -8 -28 -12 -34 -8 -6 4 -8 3 -5 -3
4 -6 0 -14 -9 -17 -10 -4 -13 -2 -9 7 4 6 0 4 -8 -5 -8 -10 -17 -15 -20 -11
-4 3 -7 1 -7 -5 0 -7 -5 -12 -11 -12 -5 0 -7 6 -3 13 6 9 4 9 -7 1 -8 -6 -41
-12 -74 -13 -71 -2 -112 -8 -179 -27 -27 -7 -52 -11 -57 -8 -5 3 -9 0 -9 -6 0
-6 -4 -8 -10 -5 -5 3 -10 1 -10 -6 0 -7 -7 -4 -16 7 -8 10 -13 13 -9 7 6 -12
-8 -17 -42 -16 -7 1 -13 -3 -13 -8 0 -6 -8 -5 -19 1 -14 7 -22 7 -27 -2 -5 -7
-3 -8 6 -3 8 5 11 4 6 -3 -4 -6 -13 -9 -21 -6 -8 4 -12 10 -9 16 3 5 -4 4 -15
-4 -18 -11 -23 -11 -31 2 -8 12 -10 12 -10 1 0 -8 -3 -11 -7 -8 -3 4 -12 2
-19 -4 -8 -7 -14 -6 -20 2 -5 8 -3 9 6 4 9 -5 11 -4 6 4 -5 7 -12 9 -19 3 -7
-5 -31 -8 -54 -8 -24 1 -43 -3 -43 -9 0 -5 -5 -3 -10 5 -8 12 -10 12 -10 1 0
-11 -3 -11 -17 0 -12 10 -14 10 -9 1 9 -15 -65 -13 -76 3 -5 6 -8 5 -8 -2 0
-7 -7 -13 -16 -13 -9 0 -12 5 -8 13 6 9 4 9 -7 1 -20 -15 -59 -15 -59 -1 0 8
-3 8 -8 2 -9 -13 -46 -20 -38 -7 3 5 -1 9 -9 9 -8 0 -12 -4 -9 -9 3 -4 1 -8
-5 -8 -5 0 -13 5 -16 10 -4 6 -12 7 -18 3 -19 -12 -37 -12 -37 -2 0 6 -4 7
-10 4 -5 -3 -10 0 -10 7 0 9 -3 9 -8 2 -4 -6 -20 -10 -35 -9 -15 1 -30 -2 -33
-7 -3 -4 -14 -2 -25 6 -11 7 -29 12 -40 9 -10 -3 -27 1 -36 8 -12 10 -14 10
-9 2 4 -7 2 -13 -3 -13 -6 0 -11 5 -11 11 0 8 -5 7 -16 -2 -10 -8 -18 -9 -22
-3 -14 22 -154 52 -272 58 -108 6 -109 6 -102 24 3 10 1 13 -6 8 -7 -4 -27 1
-45 12 -17 11 -66 25 -107 31 -41 5 -84 12 -95 15 -11 2 -24 5 -28 5 -5 1 -5
7 -1 14 5 8 2 8 -9 -2 -15 -12 -21 -9 -19 10 1 3 -4 6 -11 7 -7 1 -39 10 -72
21 -33 11 -73 22 -88 26 -15 3 -26 9 -23 13 2 4 -7 8 -20 8 -13 1 -30 9 -39
18 -9 8 -35 20 -58 26 -23 6 -58 16 -78 21 -20 5 -43 17 -50 26 -18 21 -87 52
-116 53 -13 0 -23 5 -23 11 0 5 -4 7 -10 4 -5 -3 -10 0 -10 9 0 14 -93 64
-130 70 -3 1 -17 12 -30 25 -14 13 -45 32 -69 42 -24 11 -53 29 -63 41 -10 12
-18 18 -18 14 0 -4 -15 4 -32 17 -18 13 -41 27 -51 30 -10 4 -15 11 -12 17 3
5 1 10 -6 10 -7 0 -21 8 -31 17 -11 10 -34 22 -51 28 -18 5 -31 14 -29 18 3 9
-49 50 -83 66 -11 5 -32 22 -46 37 -34 38 -67 64 -79 64 -9 0 -14 15 -11 33 1
5 -2 6 -7 3 -5 -3 -24 8 -43 24 -19 16 -31 29 -27 30 6 0 -50 60 -57 60 -1 0
-30 27 -64 60 -34 33 -59 60 -55 60 4 0 -10 14 -31 30 -21 17 -35 30 -32 30 3
0 -10 17 -28 37 -19 21 -35 41 -35 46 0 4 -7 7 -17 7 -9 0 -13 3 -10 7 4 3 -2
12 -13 20 -11 8 -20 19 -20 24 0 5 -12 21 -26 34 -15 14 -24 25 -21 25 3 0 -8
14 -24 31 -16 17 -29 38 -29 46 0 8 -4 12 -9 8 -10 -5 -51 45 -51 62 0 5 -11
20 -25 33 -13 12 -22 27 -19 31 3 5 -3 6 -12 2 -12 -4 -15 -3 -10 5 4 7 3 12
-1 12 -5 0 -15 17 -22 37 -8 21 -23 46 -34 56 -11 9 -16 17 -11 17 5 0 1 5 -9
11 -9 5 -17 18 -17 27 0 17 -36 82 -50 92 -10 7 -36 60 -43 90 -4 14 -20 40
-36 59 -16 19 -28 38 -25 43 3 4 0 8 -5 8 -6 0 -11 6 -11 14 0 8 -5 27 -11 43
-6 15 -9 29 -7 30 2 2 -7 10 -20 18 -12 9 -20 21 -17 26 4 5 1 9 -5 9 -6 0 -8
5 -5 10 3 6 2 10 -4 10 -5 0 -12 15 -16 33 -9 46 -26 87 -36 87 -5 0 -9 10 -9
23 0 14 -3 18 -8 10 -5 -8 -13 4 -21 32 -7 24 -10 48 -7 54 4 5 2 12 -4 16 -5
3 -10 15 -10 26 0 11 -7 36 -17 57 -9 20 -17 40 -18 45 -2 4 -4 10 -5 15 -1 4
-2 10 -1 14 0 4 -6 5 -14 1 -13 -4 -14 -1 -5 21 5 14 6 26 1 26 -5 0 -11 30
-15 68 -4 37 -17 88 -30 114 -16 34 -20 50 -12 58 8 8 6 9 -9 4 -11 -4 -17 -4
-13 1 4 4 3 17 -3 28 -6 10 -7 17 -2 14 5 -4 10 0 10 8 0 8 -4 12 -8 9 -4 -2
-7 23 -6 56 1 33 -1 60 -5 60 -4 0 -7 10 -7 22 0 13 -6 65 -14 115 -9 51 -16
146 -18 210 -1 65 -6 124 -12 131 -6 8 -5 12 4 12 9 0 10 3 4 8 -9 6 -14 18
-19 47 -1 6 -6 16 -10 24 -6 10 -5 12 2 7 16 -10 15 7 0 22 -10 10 -10 14 0
21 16 10 23 92 10 109 -7 8 -6 12 3 12 11 0 11 2 -1 10 -8 5 -10 10 -4 10 7 0
10 15 7 40 -3 26 0 47 9 57 9 12 9 15 1 9 -7 -4 -13 -3 -13 3 0 5 3 12 8 14 4
3 8 49 10 104 4 171 31 361 56 392 8 11 8 13 -1 8 -8 -5 -11 3 -10 28 1 19 5
35 8 35 3 0 5 17 2 38 -2 28 -1 33 7 22 9 -13 11 -12 9 5 -2 33 1 46 9 41 5
-3 9 0 10 7 0 7 3 21 5 32 20 80 27 114 27 143 0 24 4 31 13 26 9 -6 9 -4 -1
8 -9 12 -10 18 -2 23 6 4 9 13 6 21 -3 8 -2 14 2 14 4 0 13 9 20 21 9 13 9 18
2 14 -8 -5 -7 0 1 13 7 12 15 19 19 17 3 -2 5 15 6 38 0 22 6 43 12 45 7 2 10
8 6 13 -8 13 6 50 16 44 5 -3 7 4 5 15 -3 13 2 20 13 21 14 0 13 2 -3 9 -20 9
-20 9 0 9 12 1 21 8 22 19 2 29 46 136 63 150 12 11 13 12 0 6 -8 -5 -3 7 13
25 15 18 27 36 27 41 0 5 5 21 12 37 13 31 15 38 17 54 0 5 6 7 11 4 6 -4 10
-3 9 2 -4 25 2 42 15 37 8 -3 14 1 13 8 -1 32 4 49 13 43 6 -4 7 1 3 11 -5 13
-3 15 7 9 9 -5 11 -4 6 4 -4 7 2 20 16 32 13 11 16 18 8 14 -13 -6 -13 -5 0 7
20 17 44 69 41 87 -1 7 2 10 7 7 12 -7 36 20 29 31 -3 5 1 17 9 28 8 10 14 14
14 9 0 -6 -6 -16 -12 -23 -11 -11 -10 -13 2 -9 9 3 16 19 18 41 2 20 7 37 11
37 4 0 16 7 27 16 18 14 18 14 -6 3 -23 -11 -24 -11 -11 5 8 10 23 15 33 13
10 -3 15 -1 12 5 -3 5 1 17 9 26 17 18 41 72 39 85 -1 4 2 7 8 7 11 0 70 56
65 62 -2 2 18 27 45 56 27 29 46 52 43 52 -3 0 4 9 17 20 13 11 20 20 16 20
-4 0 -1 6 6 14 7 8 18 11 23 8 6 -3 7 -2 3 3 -10 10 31 67 43 59 5 -3 8 -2 7
3 -2 4 6 18 17 30 11 11 28 33 38 47 10 14 24 26 32 26 16 0 65 46 65 62 0 5
7 7 16 4 14 -5 15 -4 4 9 -12 15 -4 20 22 16 4 0 4 7 1 16 -5 12 -2 15 10 10
11 -4 14 -2 10 8 -3 8 2 18 11 21 9 3 14 10 11 14 -3 4 2 11 11 14 8 3 12 2 9
-4 -3 -6 -1 -10 6 -10 6 0 9 8 6 19 -3 15 0 19 13 16 10 -2 21 3 24 11 3 8 12
14 21 14 8 0 15 7 15 15 0 8 7 15 15 15 9 0 32 16 51 35 19 20 39 33 44 30 6
-3 7 1 4 9 -3 8 2 17 13 20 25 9 84 62 76 70 -3 3 1 7 10 8 10 0 22 1 29 2 7
1 28 16 48 33 19 18 43 33 53 33 10 0 15 5 12 10 -3 6 1 10 9 10 9 0 16 5 16
10 0 6 5 10 11 10 6 0 20 10 31 23 11 12 17 15 13 7 -4 -8 2 -5 13 8 11 12 26
22 34 22 7 0 23 7 34 15 12 8 25 11 29 7 5 -4 5 -2 2 4 -4 7 5 20 19 29 18 12
24 13 19 4 -3 -8 0 -6 8 4 9 10 18 18 21 18 20 -1 97 41 106 59 6 12 14 19 17
16 4 -3 11 -2 17 3 6 4 35 16 64 25 28 10 52 21 52 26 0 5 14 15 30 24 17 8
30 10 30 5 0 -6 7 -3 16 5 8 9 24 16 35 16 11 0 44 13 73 29 42 22 53 25 49
12 -3 -9 2 -6 12 7 9 13 23 21 31 18 8 -3 14 -1 14 5 0 6 7 9 15 6 8 -4 17 -2
20 2 2 5 21 12 40 15 19 4 35 12 35 18 0 5 7 8 15 4 8 -3 15 -1 15 5 0 6 7 9
15 5 8 -3 15 -1 15 4 0 5 7 7 15 4 9 -4 15 0 15 7 0 11 3 11 10 -1 5 -8 10
-10 10 -4 0 7 11 15 25 18 14 4 25 10 25 15 0 4 11 6 25 3 14 -2 31 1 39 7 10
8 16 9 21 1 4 -7 12 -7 26 0 11 6 24 8 29 5 6 -3 10 -1 10 5 0 7 7 10 15 7 8
-4 17 -2 21 4 3 6 12 8 20 5 8 -3 13 0 11 6 -1 6 4 13 12 16 8 2 11 0 8 -5 -3
-5 3 -9 13 -9 10 0 16 5 13 11 -2 7 2 12 9 13 7 0 36 3 63 6 28 3 82 8 120 11
124 10 180 17 185 24 3 3 16 12 29 19 18 11 25 11 31 2 5 -8 9 -4 13 11 4 16
10 20 19 13 7 -5 34 -9 60 -9 31 1 45 -2 41 -9 -4 -6 4 -2 17 9 13 11 20 15
17 8 -5 -7 0 -9 13 -6 11 3 18 9 15 13 -2 4 7 5 20 2 14 -2 28 -9 31 -14 3 -5
12 -4 20 3 11 9 18 8 31 -2 9 -8 14 -9 10 -2 -5 8 14 11 68 11 50 0 75 -4 75
-11 0 -7 4 -6 9 2 8 13 12 13 27 0 11 -9 15 -9 10 -1 -5 9 4 12 33 12 23 0 43
0 46 0 3 0 14 9 25 20 20 20 27 60 13 74 -5 4 -9 39 -10 77 -2 52 1 68 10 62
9 -5 9 -3 1 8 -6 8 -8 25 -4 39 4 14 1 44 -6 68 -11 37 -10 42 2 31 12 -10 13
-8 5 13 -5 13 -6 30 -2 37 5 7 5 29 2 49 -4 20 -6 46 -5 57 9 93 10 155 3 155
-5 0 -9 6 -9 13 0 6 -11 17 -25 24 -16 7 -23 7 -18 1 4 -7 1 -8 -8 -2 -8 5
-22 7 -31 6 -10 -2 -18 2 -18 8 0 6 -5 8 -12 3 -7 -4 -49 -9 -93 -10 -44 -1
-87 -2 -95 -3 -8 -1 -27 1 -42 3 -16 2 -28 0 -28 -6 0 -6 -5 -6 -12 0 -15 11
-58 11 -75 0 -7 -4 -16 0 -22 10 -6 10 -11 13 -11 8z m-4120 -3205 c0 -5 -5
-10 -11 -10 -5 0 -7 5 -4 10 3 6 8 10 11 10 2 0 4 -4 4 -10z"/>
<path d="M6907 8856 c-4 -10 -11 -14 -17 -11 -6 4 -7 -1 -3 -11 4 -12 3 -15
-5 -10 -7 4 -12 3 -12 -3 0 -5 6 -11 13 -14 9 -3 8 -9 -4 -23 -16 -19 -22 -57
-8 -48 5 2 6 12 3 22 -5 14 -4 15 5 2 7 -11 6 -21 -4 -37 -13 -20 -13 -23 3
-32 9 -6 11 -11 5 -11 -13 0 -13 -26 0 -47 4 -6 2 -15 -4 -19 -8 -5 -9 -3 -4
6 5 9 4 11 -4 6 -8 -6 -9 -12 -2 -20 7 -9 7 -17 -2 -26 -8 -9 -9 -11 0 -6 6 3
14 2 17 -3 3 -5 -1 -12 -10 -15 -13 -5 -14 -9 -4 -21 7 -8 9 -15 4 -15 -5 0
-2 -5 6 -10 11 -7 12 -10 2 -10 -9 0 -11 -7 -7 -21 5 -16 4 -20 -6 -15 -8 4
-5 0 5 -8 18 -14 15 -21 -7 -17 -4 1 -3 -7 3 -18 13 -25 13 -34 0 -26 -15 9
-12 -2 6 -19 8 -9 12 -16 7 -16 -5 0 -8 -24 -8 -52 1 -29 -3 -59 -9 -67 -8
-11 -8 -13 0 -8 7 4 14 0 18 -8 3 -8 1 -17 -4 -20 -4 -3 -7 -13 -5 -23 1 -9
-2 -22 -7 -29 -5 -7 -5 -13 0 -17 5 -3 8 -17 7 -31 -2 -14 1 -25 6 -25 6 0 7
-5 4 -10 -4 -6 -11 -8 -16 -5 -14 9 -11 -2 7 -19 8 -9 11 -16 5 -16 -6 0 -11
-5 -11 -11 0 -5 5 -7 12 -3 7 5 8 3 2 -7 -12 -19 -12 -33 1 -41 6 -5 6 -8 -2
-8 -7 0 -10 -7 -6 -17 5 -12 3 -14 -8 -8 -11 7 -12 6 -2 -7 7 -8 10 -18 6 -22
-4 -4 -1 -11 7 -16 10 -6 11 -10 3 -10 -7 0 -10 -7 -6 -17 5 -12 3 -14 -8 -8
-11 7 -12 6 -2 -6 10 -12 10 -18 1 -27 -9 -9 -8 -12 6 -12 11 0 14 -4 9 -12
-11 -18 -11 -50 0 -73 10 -18 9 -19 -8 -5 -12 10 -16 11 -11 2 13 -21 14 -62
2 -62 -7 0 -7 -3 1 -8 7 -4 11 -18 8 -30 -2 -13 1 -22 8 -22 8 0 8 -3 2 -8
-13 -8 -13 -22 -1 -41 5 -8 4 -16 -5 -22 -12 -8 -12 -10 0 -18 9 -6 10 -11 2
-15 -6 -4 -9 -12 -5 -17 3 -5 10 -6 16 -3 7 4 8 2 4 -5 -4 -6 -12 -9 -17 -6
-16 11 -10 -7 9 -21 16 -13 16 -14 -2 -7 -15 5 -17 3 -11 -8 11 -17 14 -50 5
-44 -4 2 -7 -2 -7 -10 0 -8 4 -12 9 -9 4 3 8 0 8 -5 0 -6 -6 -11 -12 -11 -9 0
-8 -4 2 -10 13 -9 13 -10 0 -10 -13 0 -13 -1 0 -10 8 -5 10 -10 4 -10 -14 0
-14 -33 0 -42 7 -5 7 -8 -2 -8 -7 0 -10 -4 -7 -10 3 -5 0 -10 -7 -10 -10 0 -9
-3 1 -9 13 -8 13 -12 0 -27 -8 -10 -9 -15 -4 -12 6 4 17 3 25 -3 12 -7 11 -9
-5 -9 -15 0 -17 -2 -6 -9 10 -7 11 -13 1 -31 -8 -15 -8 -20 -1 -16 6 4 11 2
11 -3 0 -6 -6 -11 -12 -11 -10 0 -9 -3 1 -9 11 -7 11 -9 0 -14 -11 -4 -12 -7
-1 -15 14 -10 13 -33 -3 -44 -6 -5 -4 -8 4 -8 11 0 9 -4 -5 -15 -12 -9 -13
-13 -4 -10 11 4 16 -1 17 -15 1 -12 -3 -18 -9 -14 -6 4 -6 -1 1 -14 9 -17 8
-23 -6 -31 -15 -8 -15 -11 -3 -12 8 -1 20 -1 25 0 6 1 1 -6 -9 -14 -13 -10
-15 -15 -6 -15 7 0 10 -3 7 -7 -4 -3 -2 -12 5 -20 9 -11 7 -12 -8 -6 -17 6
-18 5 -4 -12 9 -11 10 -16 3 -11 -7 4 -13 2 -13 -3 0 -6 6 -11 13 -11 8 0 7
-4 -3 -10 -13 -9 -13 -10 0 -10 13 0 13 -1 0 -10 -13 -9 -13 -10 0 -10 13 0
13 -1 0 -10 -13 -9 -13 -10 0 -10 13 0 13 -1 0 -10 -10 -6 -11 -10 -2 -10 6 0
12 -5 12 -11 0 -5 -5 -7 -11 -3 -8 5 -8 1 0 -13 7 -14 7 -24 -2 -33 -9 -10 -9
-11 2 -5 9 5 12 3 9 -6 -3 -8 -12 -13 -19 -11 -9 1 -8 -3 4 -11 9 -8 17 -17
17 -20 0 -4 -8 -4 -17 -1 -15 5 -15 4 1 -6 15 -10 16 -14 5 -21 -12 -7 -11 -9
1 -9 13 0 13 -1 0 -10 -13 -9 -13 -10 0 -10 13 0 13 -1 0 -10 -11 -7 -11 -10
-2 -10 7 0 10 -5 7 -10 -4 -6 -12 -8 -18 -4 -7 3 -4 -1 5 -8 15 -13 15 -15 0
-26 -16 -11 -16 -11 1 -6 9 4 17 1 17 -5 0 -6 -6 -11 -12 -11 -9 0 -8 -4 2
-10 13 -9 13 -10 0 -10 -13 0 -13 -1 0 -10 10 -6 11 -10 3 -10 -7 0 -13 -5
-13 -11 0 -5 4 -8 9 -4 13 8 10 -38 -4 -47 -6 -5 -6 -8 3 -8 6 0 12 -5 12 -11
0 -5 -4 -7 -10 -4 -5 3 -10 1 -10 -4 0 -6 6 -11 13 -11 8 0 7 -4 -3 -10 -13
-9 -13 -10 0 -10 13 0 13 -1 0 -10 -13 -9 -13 -10 0 -10 13 0 13 -1 0 -10 -13
-9 -13 -10 0 -10 13 0 13 -1 0 -10 -13 -9 -13 -10 0 -10 13 0 13 -1 0 -10 -11
-7 -11 -10 -2 -10 8 0 10 -5 5 -12 -11 -19 -13 -39 -2 -32 5 3 9 -2 9 -11 0
-9 -3 -14 -8 -11 -4 2 -8 -15 -8 -39 0 -24 4 -41 8 -39 5 3 8 0 8 -5 0 -6 -4
-11 -10 -11 -5 0 -10 -5 -10 -11 0 -5 4 -8 8 -5 11 7 9 -35 -2 -53 -6 -10 -5
-12 2 -7 7 4 12 3 12 -3 0 -5 -8 -12 -17 -14 -17 -4 -17 -5 0 -6 18 -1 23 -16
8 -25 -10 -7 -9 -25 2 -43 8 -13 2 -17 -18 -13 -5 1 -1 -8 9 -19 11 -12 14
-21 8 -21 -7 0 -12 -5 -12 -11 0 -6 7 -8 16 -5 14 5 15 4 4 -9 -7 -8 -9 -15
-5 -15 4 0 1 -8 -6 -17 -10 -11 -10 -14 -1 -9 6 4 12 3 12 -3 0 -5 -6 -12 -12
-14 -10 -4 -10 -6 0 -6 7 -1 10 -6 6 -13 -10 -16 -12 -88 -2 -82 4 3 8 -2 8
-11 0 -9 -4 -14 -8 -11 -4 2 -8 -11 -8 -29 0 -18 4 -31 8 -29 4 3 8 0 8 -5 0
-6 -6 -11 -12 -11 -10 0 -10 -2 0 -9 14 -9 13 -32 -3 -43 -6 -5 -5 -8 3 -8 6
0 12 -5 12 -11 0 -5 -4 -8 -8 -5 -5 3 -9 -1 -9 -9 0 -8 4 -12 9 -9 10 6 11
-10 1 -20 -10 -9 -13 -37 -4 -31 4 2 8 -2 8 -10 0 -8 -4 -12 -8 -9 -4 2 -11
-1 -15 -7 -4 -7 -3 -9 4 -5 15 9 26 -12 13 -28 -7 -9 -7 -16 0 -23 8 -8 7 -13
-2 -18 -8 -6 -10 -4 -4 5 5 9 4 11 -4 6 -9 -6 -9 -11 0 -22 9 -11 8 -14 -2
-15 -8 0 -5 -4 6 -9 17 -7 17 -9 3 -9 -12 -1 -15 -6 -11 -17 3 -9 0 -20 -8
-25 -12 -7 -12 -9 0 -9 10 0 11 -3 2 -14 -9 -10 -9 -16 -1 -21 8 -5 8 -11 0
-20 -6 -7 -8 -19 -4 -28 3 -8 0 -18 -5 -22 -6 -3 -9 -10 -7 -14 3 -4 -4 -44
-14 -88 -11 -44 -21 -92 -22 -107 -1 -14 -8 -28 -15 -30 -7 -3 -10 -12 -7 -21
4 -8 -1 -17 -10 -21 -9 -3 -13 -10 -10 -15 3 -6 1 -16 -6 -23 -6 -8 -13 -24
-15 -36 -8 -44 -17 -60 -27 -54 -6 4 -8 2 -5 -4 11 -16 -4 -44 -20 -38 -8 3
-11 1 -8 -4 3 -6 -3 -23 -14 -39 -12 -16 -21 -34 -21 -40 0 -17 -33 -51 -43
-44 -6 3 -7 1 -3 -5 4 -7 3 -12 -2 -12 -8 0 -34 -44 -36 -61 -1 -3 -13 -16
-27 -30 -15 -13 -28 -28 -30 -34 -2 -5 -7 -9 -11 -8 -5 2 -7 0 -7 -5 3 -20 -3
-31 -20 -37 -14 -4 -18 -12 -14 -23 3 -9 3 -14 -1 -11 -8 8 -56 -37 -56 -52 0
-6 -4 -7 -10 -4 -5 3 -10 2 -10 -2 0 -5 -18 -22 -40 -39 -22 -16 -40 -35 -40
-41 0 -7 -4 -13 -9 -13 -19 0 -121 -74 -121 -87 0 -8 -4 -11 -10 -8 -5 3 -10
1 -10 -5 0 -7 -6 -10 -14 -7 -8 3 -23 -3 -35 -14 -12 -11 -26 -17 -31 -14 -6
3 -10 1 -10 -5 0 -6 -5 -8 -10 -5 -6 4 -10 3 -9 -2 3 -20 -2 -25 -16 -13 -13
11 -14 10 -9 -4 3 -9 1 -17 -5 -17 -14 -2 -21 -4 -46 -13 -64 -24 -75 -28 -80
-25 -4 2 -13 -7 -22 -21 -10 -18 -13 -19 -9 -5 6 20 6 20 -11 0 -18 -22 -59
-43 -48 -25 3 5 -7 3 -22 -5 -15 -8 -46 -15 -68 -15 -22 0 -58 -5 -80 -11 -22
-6 -48 -11 -57 -12 -9 -1 -15 -4 -12 -8 2 -4 -3 -10 -12 -13 -8 -3 -13 -2 -10
3 4 5 -3 7 -14 4 -11 -3 -18 -8 -16 -12 3 -4 -5 -8 -17 -8 -17 -2 -19 0 -7 7
8 5 10 10 4 10 -6 0 -17 -6 -23 -14 -9 -10 -20 -12 -41 -6 -18 5 -32 5 -35 -1
-4 -5 -14 -6 -23 -1 -15 7 -139 8 -167 2 -5 -1 -12 -1 -15 0 -3 1 -18 4 -35 6
-16 3 -31 9 -33 15 -2 5 -8 9 -13 9 -6 0 -7 -6 -3 -12 4 -7 -4 -3 -18 10 -13
12 -35 22 -49 22 -43 0 -179 23 -179 31 0 4 -9 5 -20 2 -16 -4 -19 -2 -13 12
4 13 3 16 -5 11 -7 -4 -31 4 -54 17 -24 13 -64 30 -90 37 -26 7 -45 16 -43 20
3 5 -3 7 -12 5 -26 -4 -48 15 -31 27 10 7 10 9 -2 7 -23 -2 -60 12 -60 23 0 5
-4 7 -9 3 -5 -3 -12 -1 -16 5 -4 6 -11 7 -17 4 -7 -4 -8 -2 -4 4 4 7 1 12 -8
12 -8 0 -18 5 -22 12 -5 7 -2 8 7 3 8 -5 11 -4 6 1 -5 5 -12 9 -15 9 -16 1
-61 38 -56 46 3 5 -3 6 -12 2 -10 -3 -15 -2 -13 3 5 9 -37 55 -57 63 -5 2 -15
6 -21 8 -7 3 -13 9 -13 13 0 13 -108 119 -114 112 -3 -3 -6 1 -6 9 0 8 -11 23
-25 33 -14 11 -23 26 -21 33 3 8 1 11 -4 8 -5 -3 -19 13 -31 37 -12 23 -34 54
-49 68 -15 14 -30 35 -34 48 -4 12 -14 29 -22 37 -8 8 -16 24 -17 34 -1 11 -3
18 -6 15 -6 -5 -31 53 -31 72 0 8 -7 31 -17 52 -9 20 -17 41 -17 45 -1 4 -8
12 -16 17 -13 9 -13 10 0 11 10 0 8 3 -5 9 -13 6 -15 9 -5 9 12 1 13 3 1 10
-15 10 -54 198 -44 214 3 6 1 7 -5 3 -8 -4 -10 5 -8 30 1 20 -3 42 -11 49 -14
15 -18 29 -5 21 5 -3 9 1 9 9 0 8 -4 12 -8 9 -4 -2 -6 8 -5 23 5 42 -49 75
-123 77 -31 1 -66 -2 -79 -6 -13 -4 -21 -5 -19 0 5 8 -128 6 -150 -2 -7 -3
-13 -1 -13 5 0 6 -6 6 -18 0 -10 -5 -23 -7 -29 -3 -13 8 -227 7 -248 -2 -8 -3
-15 -2 -15 2 0 8 -167 8 -176 -1 -3 -3 -16 -2 -28 2 -23 7 -78 6 -102 -3 -8
-3 -14 -1 -14 4 0 6 -9 6 -23 1 -13 -5 -28 -6 -34 -3 -13 8 -227 6 -248 -2 -8
-3 -15 -1 -15 4 0 6 -9 6 -23 1 -13 -5 -29 -6 -35 -2 -13 8 -137 5 -151 -4 -6
-3 -11 -2 -11 3 0 5 -11 8 -24 7 -95 -11 -112 -32 -99 -121 4 -32 8 -84 8
-116 0 -31 3 -54 8 -51 4 2 7 0 7 -6 0 -5 3 -18 6 -28 5 -15 4 -15 -5 -3 -8
12 -10 11 -8 -7 0 -12 4 -20 8 -17 4 2 10 -3 13 -12 3 -8 2 -13 -2 -10 -5 3
-9 -1 -9 -9 0 -8 4 -12 8 -10 3 3 9 -4 12 -15 3 -13 1 -18 -6 -13 -8 5 -8 2 0
-8 10 -12 10 -18 0 -29 -9 -10 -9 -11 1 -6 8 5 12 -2 12 -23 0 -18 5 -31 12
-31 8 0 9 -3 2 -10 -7 -7 -8 -30 -2 -68 5 -31 11 -67 12 -79 1 -12 8 -29 16
-37 10 -13 10 -16 -1 -16 -9 -1 -8 -4 4 -11 15 -9 16 -13 5 -27 -7 -9 -8 -13
-2 -9 7 4 15 0 18 -9 3 -8 2 -12 -4 -9 -6 3 -7 -1 -4 -9 3 -9 10 -16 15 -16 4
0 7 -15 5 -34 -1 -19 2 -32 7 -29 4 3 7 -1 6 -8 -4 -20 21 -119 39 -154 9 -16
15 -33 14 -37 -1 -5 3 -8 9 -8 6 0 9 -7 5 -15 -3 -8 0 -14 6 -12 5 1 12 -7 14
-17 6 -37 13 -62 31 -102 9 -21 16 -45 14 -53 -1 -7 1 -11 6 -8 4 3 14 -1 21
-9 10 -11 10 -14 0 -15 -7 0 -4 -5 8 -11 15 -7 20 -16 16 -33 -4 -22 30 -85
50 -93 5 -2 6 -8 2 -13 -3 -5 -1 -9 5 -9 5 0 15 -17 21 -37 7 -21 22 -49 34
-62 12 -14 15 -21 6 -17 -9 5 -8 2 2 -7 10 -8 15 -17 11 -20 -3 -4 -2 -7 4 -7
6 0 16 -15 22 -32 16 -45 53 -98 70 -98 8 0 11 -6 7 -15 -3 -8 -1 -15 4 -15 5
0 12 -10 16 -22 3 -13 15 -35 25 -49 10 -14 15 -30 11 -34 -4 -5 -1 -5 6 -1 6
4 12 2 12 -4 0 -6 4 -9 9 -5 5 3 12 -4 16 -15 3 -10 30 -44 60 -74 29 -30 50
-57 47 -60 -3 -3 2 -6 12 -6 9 0 14 -4 11 -10 -3 -5 1 -10 10 -10 9 0 13 -4
10 -10 -3 -5 -1 -10 4 -10 6 0 10 -3 9 -7 -5 -14 36 -73 54 -79 10 -3 18 -12
18 -20 0 -8 5 -12 10 -9 6 3 10 1 10 -5 0 -15 61 -66 74 -62 5 2 3 -4 -4 -13
-11 -13 -10 -15 2 -10 10 4 23 -4 36 -19 11 -14 25 -26 30 -26 6 0 31 -19 55
-43 24 -23 63 -58 87 -77 24 -19 59 -50 79 -69 48 -46 100 -81 121 -81 9 0 23
-11 30 -25 7 -13 29 -31 49 -40 60 -27 86 -44 83 -55 -1 -7 2 -9 8 -5 5 3 31
-7 57 -22 27 -15 54 -27 61 -25 6 2 12 -4 12 -12 0 -16 97 -66 129 -66 12 0
21 -4 21 -10 0 -5 8 -7 18 -3 9 3 14 3 10 -2 -10 -11 87 -61 135 -70 20 -4 37
-11 37 -17 0 -5 4 -7 9 -3 5 3 12 1 16 -5 4 -6 11 -8 16 -5 5 4 9 1 9 -5 0 -6
5 -8 10 -5 6 3 10 3 10 -2 0 -12 114 -46 150 -45 19 0 28 -3 24 -10 -4 -7 -2
-8 5 -4 14 9 81 -14 81 -28 0 -5 3 -6 7 -3 3 4 11 3 17 -2 23 -17 169 -42 253
-43 13 0 21 -4 18 -8 -3 -5 4 -6 15 -3 11 3 20 0 20 -6 0 -6 3 -10 8 -10 21 4
32 -2 26 -14 -6 -9 -4 -9 8 1 13 10 17 10 20 0 4 -10 61 -15 239 -20 129 -3
261 -4 294 -1 33 2 128 6 210 8 162 4 175 5 175 15 0 6 7 8 49 12 11 1 17 6
15 10 -3 4 1 9 8 9 7 1 22 3 33 5 11 2 61 7 111 12 50 5 97 13 105 17 7 5 21
10 30 10 9 1 24 9 34 18 22 22 31 22 14 0 -7 -10 0 -7 15 7 16 14 26 19 22 13
-4 -7 -2 -13 3 -13 6 0 11 5 11 11 0 5 4 8 9 4 5 -3 13 -1 16 5 4 6 21 10 38
9 33 -3 103 16 124 33 7 5 17 7 22 4 5 -4 13 -1 17 5 5 8 3 9 -6 4 -9 -5 -11
-4 -6 3 4 7 16 12 26 12 10 0 21 4 24 8 3 5 30 14 61 21 30 7 55 17 55 22 0 5
6 9 14 9 8 0 16 6 19 14 3 8 21 18 39 24 18 5 52 15 76 22 23 8 55 25 69 39
15 14 23 19 19 11 -4 -8 1 -5 10 7 9 13 26 23 38 23 22 0 109 54 101 62 -3 3
14 11 37 18 46 15 101 54 91 64 -4 3 -2 6 3 6 6 0 32 14 60 32 27 18 53 31 57
30 5 -1 6 2 2 8 -3 5 2 13 11 17 20 8 43 25 85 65 16 15 29 25 29 22 0 -3 6 0
13 6 6 6 26 21 43 33 17 12 31 26 31 32 0 5 18 19 39 31 22 11 38 26 37 32 -2
7 4 12 12 12 8 0 14 3 12 8 -1 4 1 8 6 9 15 5 68 60 81 84 7 13 19 23 27 21 8
-2 11 0 7 3 -4 4 5 20 20 35 15 15 39 42 53 59 15 16 30 27 34 23 3 -4 5 -2 4
3 -4 13 27 71 42 81 8 5 9 3 4 -7 -5 -8 -4 -11 1 -6 5 5 9 14 9 20 1 7 6 11
13 10 6 -2 9 3 6 10 -2 7 3 23 13 34 10 12 24 30 31 40 7 10 10 11 6 3 -4 -8
-4 -12 1 -8 11 10 31 45 52 90 10 21 25 40 34 43 9 3 33 39 54 80 23 45 42 72
49 68 6 -3 8 -3 4 1 -3 4 5 24 18 43 13 20 24 41 24 48 0 18 23 61 33 62 16 3
47 72 47 102 0 19 8 35 21 45 12 8 18 19 14 25 -3 6 -1 11 5 11 6 0 8 5 5 10
-3 6 -1 10 5 10 6 0 9 4 5 9 -3 5 -1 12 5 16 5 3 14 25 21 48 6 23 18 51 27
61 10 11 11 16 5 12 -7 -4 -13 -2 -13 3 0 6 4 11 10 11 5 0 6 7 3 17 -4 11 -3
14 5 9 7 -4 13 -2 13 3 1 6 2 19 4 29 1 9 7 29 13 43 19 47 35 113 33 142 -1
15 3 27 9 27 5 0 10 7 10 16 0 9 5 12 12 8 7 -4 8 -3 4 5 -4 6 -2 19 6 28 9
12 9 15 1 9 -16 -9 -17 6 -1 22 7 7 9 12 5 12 -4 0 -1 15 7 34 8 18 17 71 20
117 8 99 10 111 17 124 3 6 4 20 3 33 0 12 4 22 10 22 6 0 2 6 -8 12 -18 10
-18 11 5 24 16 9 19 13 8 14 -9 0 -16 7 -16 15 0 8 4 12 8 9 4 -2 10 0 14 6 3
5 1 10 -6 10 -8 0 -9 4 0 13 8 10 7 17 -2 27 -9 9 -9 11 0 6 7 -4 12 0 11 11
0 10 3 29 7 43 20 80 25 304 24 1228 0 1034 0 1050 -34 1074 -5 4 -6 8 -1 8 5
0 -1 9 -14 20 -13 11 -19 20 -14 20 5 0 4 4 -2 8 -6 4 -19 23 -29 42 -10 19
-27 43 -37 52 -11 9 -17 22 -13 27 3 6 -5 15 -18 20 -14 5 -35 24 -48 42 -13
18 -16 29 -8 24 11 -7 12 -6 2 7 -7 8 -9 19 -5 23 4 5 1 5 -5 1 -7 -4 -13 -4
-13 1 0 4 -18 28 -39 52 -22 25 -37 50 -34 55 4 6 -2 4 -12 -4 -10 -8 -16 -10
-12 -3 4 6 3 14 -3 18 -6 4 -8 11 -5 16 4 5 1 9 -5 9 -6 0 -8 5 -5 10 3 6 -3
10 -15 10 -12 0 -19 4 -16 9 3 5 -4 11 -15 14 -15 4 -20 11 -15 22 3 9 2 13
-3 10 -5 -3 -12 3 -15 13 -6 18 -49 62 -71 72 -5 3 -9 8 -8 12 2 5 -3 7 -10 5
-6 -1 -11 4 -9 11 1 8 -2 11 -8 7 -5 -3 -10 -2 -10 4 0 5 -9 13 -21 16 -11 4
-18 9 -15 12 2 3 0 10 -5 17 -5 6 -18 21 -28 34 -11 13 -23 22 -28 21 -4 -2
-18 12 -30 31 -13 18 -23 29 -23 24 0 -5 -11 4 -25 19 -14 15 -29 27 -33 27
-4 0 -21 14 -39 30 -18 17 -36 30 -40 30 -5 0 -15 9 -23 20 -8 11 -18 20 -23
20 -4 0 -20 14 -34 30 -23 28 -83 68 -83 55 0 -3 -16 11 -36 29 -20 19 -50 40
-65 47 -16 6 -29 18 -29 25 0 8 -3 13 -7 12 -15 -5 -73 24 -67 33 3 5 2 9 -3
7 -14 -3 -83 31 -83 41 0 9 -55 45 -72 46 -3 0 -10 3 -14 8 -4 4 -16 7 -26 7
-10 0 -18 4 -18 10 0 5 -6 7 -14 4 -7 -3 -23 6 -34 20 -11 14 -27 26 -35 26
-9 0 -19 5 -22 10 -3 6 -15 10 -25 10 -10 0 -26 10 -34 22 -9 12 -16 18 -17
13 0 -6 -4 -1 -9 10 -8 19 -9 19 -9 1 -1 -19 -2 -19 -14 -2 -13 17 -14 18 -20
2z"/>
<path d="M8360 7686 c0 -2 8 -10 18 -17 15 -13 16 -12 3 4 -13 16 -21 21 -21
13z"/>
</g>
</svg>
