<svg id="Layer_1" data-name="Layer 1" xmlns="http://www.w3.org/2000/svg" viewBox="0 0 26 26"><defs><style>.cls-1{fill:#231f20;}</style></defs><title>Artboard 3</title><path class="cls-1" d="M19.61,8.79A7.64,7.64,0,0,0,16.83,6,7.64,7.64,0,0,0,6.39,8.79a7.47,7.47,0,0,0-1,3.83A7.39,7.39,0,0,0,6.82,17.1a7.49,7.49,0,0,0,3.76,2.76.45.45,0,0,0,.4-.07.38.38,0,0,0,.13-.3V19c0-.34,0-.64,0-.89l-.23,0a2.81,2.81,0,0,1-.55,0,5.76,5.76,0,0,1-.69-.07,1.65,1.65,0,0,1-.66-.3,1.22,1.22,0,0,1-.44-.61l-.1-.23a3,3,0,0,0-.31-.51,1.2,1.2,0,0,0-.44-.37l-.07,0-.13-.12-.08-.14a.08.08,0,0,1,0-.12.61.61,0,0,1,.28,0l.2,0a1.21,1.21,0,0,1,.49.24,1.59,1.59,0,0,1,.49.51,1.67,1.67,0,0,0,.55.62,1.11,1.11,0,0,0,.65.22,2.9,2.9,0,0,0,.56-.05,2.16,2.16,0,0,0,.45-.15,1.55,1.55,0,0,1,.49-1,6.7,6.7,0,0,1-1-.18,4,4,0,0,1-.93-.39,2.51,2.51,0,0,1-.8-.67,3.07,3.07,0,0,1-.53-1,5.17,5.17,0,0,1-.2-1.49,2.9,2.9,0,0,1,.79-2.05,2.59,2.59,0,0,1,.07-2,1.36,1.36,0,0,1,.85.13,7.15,7.15,0,0,1,.83.38l.42.27a7.15,7.15,0,0,1,3.82,0l.37-.24a6.09,6.09,0,0,1,.92-.44,1.29,1.29,0,0,1,.8-.1,2.6,2.6,0,0,1,.08,2,2.9,2.9,0,0,1,.79,2.05,4.83,4.83,0,0,1-.21,1.49,3,3,0,0,1-.52,1,2.93,2.93,0,0,1-.81.66,4,4,0,0,1-.93.39,6.7,6.7,0,0,1-1,.18,1.73,1.73,0,0,1,.52,1.41v2.09a.41.41,0,0,0,.12.3.44.44,0,0,0,.39.07,7.52,7.52,0,0,0,3.77-2.76,7.41,7.41,0,0,0,1.45-4.48A7.47,7.47,0,0,0,19.61,8.79Z"/></svg>