<svg id="Layer_1" data-name="Layer 1" xmlns="http://www.w3.org/2000/svg" viewBox="0 0 26 26"><defs><style>.cls-1{fill:#231f20;}</style></defs><title>Artboard 1</title><path class="cls-1" d="M13,14.52A1.52,1.52,0,0,0,14.52,13,1.54,1.54,0,0,0,13,11.48a1.5,1.5,0,0,0-1.23.64,1.47,1.47,0,0,0-.29.88A1.52,1.52,0,0,0,13,14.52Z"/><polygon class="cls-1" points="16.31 11.14 16.31 9.87 16.31 9.68 16.12 9.68 14.85 9.69 14.86 11.15 16.31 11.14"/><path class="cls-1" d="M13,5.42A7.58,7.58,0,1,0,20.58,13,7.59,7.59,0,0,0,13,5.42Zm4.31,6.7v3.53a1.66,1.66,0,0,1-1.66,1.66h-5.3a1.66,1.66,0,0,1-1.66-1.66V10.36a1.67,1.67,0,0,1,1.66-1.67h5.29a1.67,1.67,0,0,1,1.67,1.67Z"/><path class="cls-1" d="M15.36,13a2.36,2.36,0,0,1-4.72,0,2.16,2.16,0,0,1,.18-.88H9.53v3.53a.82.82,0,0,0,.82.82h5.29a.83.83,0,0,0,.83-.82V12.12H15.18A2.16,2.16,0,0,1,15.36,13Z"/></svg>