<svg id="Layer_1" data-name="Layer 1" xmlns="http://www.w3.org/2000/svg" viewBox="0 0 26 26"><defs><style>.cls-1{fill:#231f20;}</style></defs><title>Artboard 2</title><path class="cls-1" d="M17.25,16.57v-3c0-1.58-.84-2.32-2-2.32a1.72,1.72,0,0,0-1.55.85v-.73H12c0,.48,0,5.16,0,5.16h1.71V13.69a1.09,1.09,0,0,1,.06-.42.94.94,0,0,1,.88-.63c.62,0,.87.48.87,1.17v2.76Zm-7-5.86a.9.9,0,1,0,0-1.79.9.9,0,1,0,0,1.79ZM13,20.58A7.58,7.58,0,1,1,20.58,13,7.58,7.58,0,0,1,13,20.58Zm-1.93-4V11.41H9.35v5.16Z"/></svg>