<svg xmlns="http://www.w3.org/2000/svg" viewBox="348 976.137 27.838 23.133">
  <defs>
    <style>
      .cls-1 {
        fill: #fff;
      }
    </style>
  </defs>
  <g id="Group_346" data-name="Group 346" transform="translate(348 973)">
    <g id="Group_345" data-name="Group 345">
      <path id="Path_247" data-name="Path 247" class="cls-1" d="M38.212,8H20.176A1.074,1.074,0,0,0,19,8.98v2.156h1.568V9.568H37.82V22.507h-.784v1.568h1.176A1.234,1.234,0,0,0,39.388,22.9V8.98A1.074,1.074,0,0,0,38.212,8Z" transform="translate(-11.55 -4.863)"/>
      <rect id="Rectangle_1517" data-name="Rectangle 1517" class="cls-1" width="1.96" height="1.568" transform="translate(23.525 17.644)"/>
      <path id="Path_248" data-name="Path 248" class="cls-1" d="M25.485,27.37v-10A1.331,1.331,0,0,0,24.152,16H1.608A1.584,1.584,0,0,0,0,17.372V34.781C0,35.526.823,36,1.608,36H24.152a1.207,1.207,0,0,0,1.333-1.215V28.939h-1.96v5.1H2.352V17.96H23.525v9.41Z" transform="translate(0 -9.727)"/>
    </g>
  </g>
</svg>
