<svg id="Layer_1" data-name="Layer 1" xmlns="http://www.w3.org/2000/svg" viewBox="0 0 26 26"><defs><style>.cls-1{fill:#231f20;}</style></defs><title>Artboard 3 copy</title><polygon class="cls-1" points="8.62 12.33 8.62 13.67 9.63 13 8.62 12.33"/><polygon class="cls-1" points="12.1 11.35 12.1 9.47 8.95 11.57 10.36 12.52 12.1 11.35"/><polygon class="cls-1" points="16.06 11.57 12.91 9.47 12.91 11.35 14.65 12.52 16.06 11.57"/><polygon class="cls-1" points="8.95 14.43 12.1 16.53 12.1 14.65 10.36 13.48 8.95 14.43"/><polygon class="cls-1" points="12.91 14.65 12.91 16.53 16.06 14.43 14.65 13.48 12.91 14.65"/><polygon class="cls-1" points="12.5 12.05 11.08 13 12.5 13.95 13.93 13 12.5 12.05"/><path class="cls-1" d="M12.5,5.42A7.58,7.58,0,1,0,20.09,13,7.58,7.58,0,0,0,12.5,5.42Zm4.69,9v.07a0,0,0,0,0,0,0v.12l0,0v0l0,0,0,0h0l0,0h0l-4.28,2.86a.39.39,0,0,1-.23.07.38.38,0,0,1-.22-.07L8,14.76H8l0,0H8l0,0,0,0v0l0,0v-.12a0,0,0,0,0,0,0v-3a0,0,0,0,0,0,0v-.12l0,0v0l0,0,0,0H8l0,0H8l4.28-2.86a.41.41,0,0,1,.45,0L17,11.24h0l0,0h0l0,0,0,0v0l0,0v.12a0,0,0,0,0,0,0v2.93Z"/><polygon class="cls-1" points="16.39 13.67 16.39 12.33 15.38 13 16.39 13.67"/></svg>