<svg id="Layer_1" data-name="Layer 1" xmlns="http://www.w3.org/2000/svg" viewBox="0 0 26 26"><defs><style>.cls-1{fill:#231f20;}</style></defs><title>Artboard 4</title><path class="cls-1" d="M13,5.42A7.58,7.58,0,1,0,20.58,13,7.58,7.58,0,0,0,13,5.42Zm4,6.22c0,.08,0,.16,0,.23A5,5,0,0,1,11.9,17a5.11,5.11,0,0,1-2.74-.8,3.1,3.1,0,0,0,.43,0,3.59,3.59,0,0,0,2.22-.76,1.78,1.78,0,0,1-1.67-1.24l.33,0a1.73,1.73,0,0,0,.47-.06,1.79,1.79,0,0,1-1.43-1.75v0a1.85,1.85,0,0,0,.81.22,1.78,1.78,0,0,1-.79-1.48,1.8,1.8,0,0,1,.24-.9,5,5,0,0,0,3.68,1.86,1.75,1.75,0,0,1,0-.4,1.78,1.78,0,0,1,3.09-1.22A3.46,3.46,0,0,0,17.62,10a1.8,1.8,0,0,1-.78,1,3.5,3.5,0,0,0,1-.28A3.54,3.54,0,0,1,17,11.64Z"/></svg>